# xmcd CD database file generated by Grip 2.5
# 
# Track frame offsets:
#       150
#       14035
#       33265
#       45180
#       60050
#       78405
#       94805
#       113082
#       129300
#       140792
#       157327
# 
# Disc length: 2359 seconds
# 
# Revision: 3
# Processed by: cddbd v1.4b41PL1 Copyright (c) Steve Scherf et al.
# Submitted via: Grip 2.5
# 
DISCID=8809350b
DTITLE=Lee Ann Womac - Some Things I Know
DYEAR=1900
DGENRE=
TTITLE0=Some Things I Know
TTITLE1=A Little Past Little Rock
TTITLE2=(Now you see me) Now you dont't
TTITLE3=I'd Rather Have what we had
TTITLE4=The Man who made mama cry
TTITLE5=I'll think of a reason Later
TTITLE6=Don't tell me
TTITLE7=I keep forgetting
TTITLE8=If your ever down in Dallas
TTITLE9=When the wheels are coming off
TTITLE10=The preacher won't have to lie
EXTD=
EXTT0=
EXTT1=
EXTT2=
EXTT3=
EXTT4=
EXTT5=
EXTT6=
EXTT7=
EXTT8=
EXTT9=
EXTT10=
PLAYORDER=
